<svg xmlns="http://www.w3.org/2000/svg" width="850" height="260" viewBox="0 0 850 260" role="img" aria-labelledby="title desc">
  <title id="title">Daily Code Activity</title>
  <desc id="desc">Daily added and deleted source lines over the last 30 days</desc>
  <style>
    .title { font: 600 18px -apple-system,BlinkMacSystemFont,"Segoe UI",sans-serif; fill: #1f2328; }
    .subtitle, .axis { font: 400 12px -apple-system,BlinkMacSystemFont,"Segoe UI",sans-serif; fill: #656d76; }
    .grid { stroke: #d8dee4; stroke-width: 1; }
    @media (prefers-color-scheme: dark) {
      .title { fill: #f0f6fc; }
      .subtitle, .axis { fill: #8b949e; }
      .grid { stroke: #30363d; }
    }
  </style>
  <text class="title" x="24" y="28">Daily Code Activity · Last 30 Days</text>
  <text class="subtitle" x="24" y="49">+65,696 added · −42,690 deleted · merge commits excluded</text>
  <line class="grid" x1="58" y1="82" x2="818" y2="82"/>
  <line class="grid" x1="58" y1="126" x2="818" y2="126"/>
  <line class="grid" x1="58" y1="170" x2="818" y2="170"/>
  <text class="axis" x="49" y="86" text-anchor="end">7,596</text>
  <text class="axis" x="49" y="130" text-anchor="end">3,798</text>
  <text class="axis" x="49" y="174" text-anchor="end">0</text>

  <g>
    <title>2026-07-24: +0 / −0 lines</title>
    <rect x="61.50" y="170.00" width="18.33" height="0.00" rx="2" fill="#2da44e"/>
    <rect x="61.50" y="173" width="18.33" height="0.00" rx="2" fill="#cf222e"/>
  </g>
  <g>
    <title>2026-07-25: +0 / −0 lines</title>
    <rect x="86.83" y="170.00" width="18.33" height="0.00" rx="2" fill="#2da44e"/>
    <rect x="86.83" y="173" width="18.33" height="0.00" rx="2" fill="#cf222e"/>
  </g>
  <g>
    <title>2026-07-26: +3,920 / −216 lines</title>
    <rect x="112.17" y="124.59" width="18.33" height="45.41" rx="2" fill="#2da44e"/>
    <rect x="112.17" y="173" width="18.33" height="1.30" rx="2" fill="#cf222e"/>
  </g>
  <g>
    <title>2026-07-27: +1,666 / −573 lines</title>
    <rect x="137.50" y="150.70" width="18.33" height="19.30" rx="2" fill="#2da44e"/>
    <rect x="137.50" y="173" width="18.33" height="3.45" rx="2" fill="#cf222e"/>
  </g>
  <g>
    <title>2026-07-28: +1,686 / −596 lines</title>
    <rect x="162.83" y="150.47" width="18.33" height="19.53" rx="2" fill="#2da44e"/>
    <rect x="162.83" y="173" width="18.33" height="3.58" rx="2" fill="#cf222e"/>
  </g>
  <g>
    <title>2026-07-29: +915 / −439 lines</title>
    <rect x="188.17" y="159.40" width="18.33" height="10.60" rx="2" fill="#2da44e"/>
    <rect x="188.17" y="173" width="18.33" height="2.64" rx="2" fill="#cf222e"/>
  </g>
  <g>
    <title>2026-07-30: +4,251 / −1,512 lines</title>
    <rect x="213.50" y="120.75" width="18.33" height="49.25" rx="2" fill="#2da44e"/>
    <rect x="213.50" y="173" width="18.33" height="9.09" rx="2" fill="#cf222e"/>
  </g>
  <g>
    <title>2026-07-31: +2,483 / −724 lines</title>
    <rect x="238.83" y="141.23" width="18.33" height="28.77" rx="2" fill="#2da44e"/>
    <rect x="238.83" y="173" width="18.33" height="4.35" rx="2" fill="#cf222e"/>
  </g>
  <g>
    <title>2026-08-01: +271 / −22 lines</title>
    <rect x="264.17" y="166.86" width="18.33" height="3.14" rx="2" fill="#2da44e"/>
    <rect x="264.17" y="173" width="18.33" height="0.13" rx="2" fill="#cf222e"/>
  </g>
  <g>
    <title>2026-08-02: +2,651 / −3,221 lines</title>
    <rect x="289.50" y="139.29" width="18.33" height="30.71" rx="2" fill="#2da44e"/>
    <rect x="289.50" y="173" width="18.33" height="19.37" rx="2" fill="#cf222e"/>
  </g>
  <g>
    <title>2026-08-03: +3,316 / −270 lines</title>
    <rect x="314.83" y="131.58" width="18.33" height="38.42" rx="2" fill="#2da44e"/>
    <rect x="314.83" y="173" width="18.33" height="1.62" rx="2" fill="#cf222e"/>
  </g>
  <g>
    <title>2026-08-04: +7,596 / −5,123 lines</title>
    <rect x="340.17" y="82.00" width="18.33" height="88.00" rx="2" fill="#2da44e"/>
    <rect x="340.17" y="173" width="18.33" height="30.81" rx="2" fill="#cf222e"/>
  </g>
  <g>
    <title>2026-08-05: +3,832 / −409 lines</title>
    <rect x="365.50" y="125.61" width="18.33" height="44.39" rx="2" fill="#2da44e"/>
    <rect x="365.50" y="173" width="18.33" height="2.46" rx="2" fill="#cf222e"/>
  </g>
  <g>
    <title>2026-08-06: +3,157 / −4,147 lines</title>
    <rect x="390.83" y="133.43" width="18.33" height="36.57" rx="2" fill="#2da44e"/>
    <rect x="390.83" y="173" width="18.33" height="24.94" rx="2" fill="#cf222e"/>
  </g>
  <g>
    <title>2026-08-07: +237 / −2,441 lines</title>
    <rect x="416.17" y="167.25" width="18.33" height="2.75" rx="2" fill="#2da44e"/>
    <rect x="416.17" y="173" width="18.33" height="14.68" rx="2" fill="#cf222e"/>
  </g>
  <g>
    <title>2026-08-08: +1,104 / −205 lines</title>
    <rect x="441.50" y="157.21" width="18.33" height="12.79" rx="2" fill="#2da44e"/>
    <rect x="441.50" y="173" width="18.33" height="1.23" rx="2" fill="#cf222e"/>
  </g>
  <g>
    <title>2026-08-09: +639 / −377 lines</title>
    <rect x="466.83" y="162.60" width="18.33" height="7.40" rx="2" fill="#2da44e"/>
    <rect x="466.83" y="173" width="18.33" height="2.27" rx="2" fill="#cf222e"/>
  </g>
  <g>
    <title>2026-08-10: +4,603 / −2,668 lines</title>
    <rect x="492.17" y="116.67" width="18.33" height="53.33" rx="2" fill="#2da44e"/>
    <rect x="492.17" y="173" width="18.33" height="16.05" rx="2" fill="#cf222e"/>
  </g>
  <g>
    <title>2026-08-11: +3,410 / −827 lines</title>
    <rect x="517.50" y="130.49" width="18.33" height="39.51" rx="2" fill="#2da44e"/>
    <rect x="517.50" y="173" width="18.33" height="4.97" rx="2" fill="#cf222e"/>
  </g>
  <g>
    <title>2026-08-12: +2,076 / −1,829 lines</title>
    <rect x="542.83" y="145.95" width="18.33" height="24.05" rx="2" fill="#2da44e"/>
    <rect x="542.83" y="173" width="18.33" height="11.00" rx="2" fill="#cf222e"/>
  </g>
  <g>
    <title>2026-08-13: +4,101 / −5,653 lines</title>
    <rect x="568.17" y="122.49" width="18.33" height="47.51" rx="2" fill="#2da44e"/>
    <rect x="568.17" y="173" width="18.33" height="34.00" rx="2" fill="#cf222e"/>
  </g>
  <g>
    <title>2026-08-14: +35 / −5 lines</title>
    <rect x="593.50" y="169.59" width="18.33" height="0.41" rx="2" fill="#2da44e"/>
    <rect x="593.50" y="173" width="18.33" height="0.03" rx="2" fill="#cf222e"/>
  </g>
  <g>
    <title>2026-08-15: +0 / −0 lines</title>
    <rect x="618.83" y="170.00" width="18.33" height="0.00" rx="2" fill="#2da44e"/>
    <rect x="618.83" y="173" width="18.33" height="0.00" rx="2" fill="#cf222e"/>
  </g>
  <g>
    <title>2026-08-16: +0 / −0 lines</title>
    <rect x="644.17" y="170.00" width="18.33" height="0.00" rx="2" fill="#2da44e"/>
    <rect x="644.17" y="173" width="18.33" height="0.00" rx="2" fill="#cf222e"/>
  </g>
  <g>
    <title>2026-08-17: +4,963 / −3,686 lines</title>
    <rect x="669.50" y="112.50" width="18.33" height="57.50" rx="2" fill="#2da44e"/>
    <rect x="669.50" y="173" width="18.33" height="22.17" rx="2" fill="#cf222e"/>
  </g>
  <g>
    <title>2026-08-18: +3,213 / −1,876 lines</title>
    <rect x="694.83" y="132.78" width="18.33" height="37.22" rx="2" fill="#2da44e"/>
    <rect x="694.83" y="173" width="18.33" height="11.28" rx="2" fill="#cf222e"/>
  </g>
  <g>
    <title>2026-08-19: +694 / −741 lines</title>
    <rect x="720.17" y="161.96" width="18.33" height="8.04" rx="2" fill="#2da44e"/>
    <rect x="720.17" y="173" width="18.33" height="4.46" rx="2" fill="#cf222e"/>
  </g>
  <g>
    <title>2026-08-20: +4,172 / −4,760 lines</title>
    <rect x="745.50" y="121.67" width="18.33" height="48.33" rx="2" fill="#2da44e"/>
    <rect x="745.50" y="173" width="18.33" height="28.63" rx="2" fill="#cf222e"/>
  </g>
  <g>
    <title>2026-08-21: +705 / −370 lines</title>
    <rect x="770.83" y="161.83" width="18.33" height="8.17" rx="2" fill="#2da44e"/>
    <rect x="770.83" y="173" width="18.33" height="2.23" rx="2" fill="#cf222e"/>
  </g>
  <g>
    <title>2026-08-22: +0 / −0 lines</title>
    <rect x="796.17" y="170.00" width="18.33" height="0.00" rx="2" fill="#2da44e"/>
    <rect x="796.17" y="173" width="18.33" height="0.00" rx="2" fill="#cf222e"/>
  </g>
  <text class="axis" x="58" y="232">Jul 24</text>
  <text class="axis" x="438.0" y="232" text-anchor="middle">Aug 08</text>
  <text class="axis" x="818" y="232" text-anchor="end">Aug 22</text>
  <circle cx="655" cy="26" r="5" fill="#2da44e"/><text class="subtitle" x="665" y="30">added</text>
  <circle cx="740" cy="26" r="5" fill="#cf222e"/><text class="subtitle" x="750" y="30">deleted</text>
</svg>
